<?xml version="1.0" encoding="UTF-8"?>
<svg xmlns="http://www.w3.org/2000/svg" xmlns:xlink="http://www.w3.org/1999/xlink" width="128pt" height="128pt" viewBox="0 0 128 128" version="1.1">
<g id="surface1">
<path style=" stroke:none;fill-rule:evenodd;fill:rgb(98.823529%,80%,1.568627%);fill-opacity:1;" d="M 0 56 L 0 112 L 14.71875 112 L 14.71875 0 L 0 0 L 0 56 M 27.777344 64 L 27.777344 128 L 43.265625 128 L 43.265625 0 L 27.777344 0 L 27.777344 64 M 56.382812 64 C 56.382812 99.234375 56.398438 113.648438 56.414062 96.03125 C 56.433594 78.414062 56.433594 49.585938 56.414062 31.96875 C 56.398438 14.351562 56.382812 28.765625 56.382812 64 M 56.574219 64 L 56.574219 128 L 71.550781 128 L 71.550781 0 L 56.574219 0 L 56.574219 64 M 71.742188 64 C 71.742188 99.234375 71.757812 113.648438 71.777344 96.03125 C 71.792969 78.414062 71.792969 49.585938 71.777344 31.96875 C 71.757812 14.351562 71.742188 28.765625 71.742188 64 M 84.734375 64 C 84.734375 106.582031 84.777344 128 84.863281 128 C 84.949219 128 84.992188 106.582031 84.992188 64 C 84.992188 21.417969 84.949219 0 84.863281 0 C 84.777344 0 84.734375 21.417969 84.734375 64 M 85.121094 64 L 85.121094 128 L 100.222656 128 L 100.222656 0 L 85.121094 0 L 85.121094 64 M 113.28125 63.90625 C 113.285156 75.925781 113.304688 76.511719 113.71875 76.167969 C 113.851562 76.054688 113.921875 76.046875 113.921875 76.144531 C 113.921875 76.25 115.839844 76.289062 120.960938 76.289062 L 128 76.289062 L 128 51.835938 L 120.640625 51.84375 L 113.28125 51.847656 L 113.28125 63.90625 "/>
<path style=" stroke:none;fill-rule:evenodd;fill:rgb(98.823529%,1.568627%,1.568627%);fill-opacity:1;" d="M 0 120 L 0 128 L 14.71875 128 L 14.71875 112 L 0 112 L 0 120 "/>
<path style=" stroke:none;fill-rule:evenodd;fill:rgb(98.823529%,81.568627%,1.568627%);fill-opacity:1;" d="M 56.511719 64 C 56.511719 99.234375 56.527344 113.648438 56.542969 96.03125 C 56.5625 78.414062 56.5625 49.585938 56.542969 31.96875 C 56.527344 14.351562 56.511719 28.765625 56.511719 64 M 71.617188 64 C 71.617188 99.234375 71.628906 113.648438 71.648438 96.03125 C 71.664062 78.414062 71.664062 49.585938 71.648438 31.96875 C 71.628906 14.351562 71.617188 28.765625 71.617188 64 M 85.054688 64 C 85.054688 99.234375 85.070312 113.648438 85.089844 96.03125 C 85.105469 78.414062 85.105469 49.585938 85.089844 31.96875 C 85.070312 14.351562 85.054688 28.765625 85.054688 64 "/>
<path style=" stroke:none;fill-rule:evenodd;fill:rgb(98.823529%,81.568627%,1.568627%);fill-opacity:1;" d="M 56.511719 64 C 56.511719 99.234375 56.527344 113.648438 56.542969 96.03125 C 56.5625 78.414062 56.5625 49.585938 56.542969 31.96875 C 56.527344 14.351562 56.511719 28.765625 56.511719 64 M 71.617188 64 C 71.617188 99.234375 71.628906 113.648438 71.648438 96.03125 C 71.664062 78.414062 71.664062 49.585938 71.648438 31.96875 C 71.628906 14.351562 71.617188 28.765625 71.617188 64 M 85.054688 64 C 85.054688 99.234375 85.070312 113.648438 85.089844 96.03125 C 85.105469 78.414062 85.105469 49.585938 85.089844 31.96875 C 85.070312 14.351562 85.054688 28.765625 85.054688 64 "/>
<path style=" stroke:none;fill-rule:evenodd;fill:rgb(98.823529%,81.568627%,1.568627%);fill-opacity:1;" d="M 56.511719 64 C 56.511719 99.234375 56.527344 113.648438 56.542969 96.03125 C 56.5625 78.414062 56.5625 49.585938 56.542969 31.96875 C 56.527344 14.351562 56.511719 28.765625 56.511719 64 M 71.617188 64 C 71.617188 99.234375 71.628906 113.648438 71.648438 96.03125 C 71.664062 78.414062 71.664062 49.585938 71.648438 31.96875 C 71.628906 14.351562 71.617188 28.765625 71.617188 64 M 85.054688 64 C 85.054688 99.234375 85.070312 113.648438 85.089844 96.03125 C 85.105469 78.414062 85.105469 49.585938 85.089844 31.96875 C 85.070312 14.351562 85.054688 28.765625 85.054688 64 "/>
</g>
</svg>
