<svg version="1.2" xmlns="http://www.w3.org/2000/svg" viewBox="0 0 218 36" width="218" height="36"><defs><clipPath clipPathUnits="userSpaceOnUse" id="cp1"><path d="m1.49 3.63h7.31v7.31h-7.31z"/></clipPath><clipPath clipPathUnits="userSpaceOnUse" id="cp2"><path d="m1.49 14.6h18.28v7.31h-18.28z"/></clipPath><clipPath clipPathUnits="userSpaceOnUse" id="cp3"><path d="m12.46 3.63h7.31v7.31h-7.31z"/></clipPath><clipPath clipPathUnits="userSpaceOnUse" id="cp4"><path d="m1.49 25.57h29.25v7.31h-29.25z"/></clipPath><clipPath clipPathUnits="userSpaceOnUse" id="cp5"><path d="m23.43 3.63h7.31v18.28h-7.31z"/></clipPath><clipPath clipPathUnits="userSpaceOnUse" id="cp6"><path d="m45.37 6.07h24.45v24.46h-24.45z"/></clipPath><clipPath clipPathUnits="userSpaceOnUse" id="cp7"><path d="m45.37 12.16v12.19c0 1.62 0.64 3.17 1.78 4.31 1.15 1.14 2.7 1.78 4.31 1.78h18.29v-4.87h-19.5v-14.63h19.5v-4.87h-18.29c-1.61 0-3.16 0.64-4.31 1.78-1.14 1.14-1.78 2.69-1.78 4.31z"/></clipPath><clipPath clipPathUnits="userSpaceOnUse" id="cp8"><path d="m75.23 12.15h14.06v18.38h-14.06z"/></clipPath><clipPath clipPathUnits="userSpaceOnUse" id="cp9"><path d="m80.08 15.21h-0.58l-0.61-3.05h-3.66v18.28h4.88v-11.58c0-0.64 0.26-1.26 0.71-1.72 0.46-0.46 1.08-0.71 1.73-0.71h6.7v-4.27h-6.09q-0.61-0.01-1.18 0.22-0.57 0.23-1 0.66-0.43 0.43-0.67 0.99-0.23 0.57-0.23 1.18z"/></clipPath><clipPath clipPathUnits="userSpaceOnUse" id="cp10"><path d="m91.51 12.15h20.15v18.38h-20.15z"/></clipPath><clipPath clipPathUnits="userSpaceOnUse" id="cp11"><path d="m108.58 12.52q0.9 0.36 1.6 1.05 0.69 0.69 1.07 1.59 0.38 0.9 0.38 1.88v13.4h-3.66l-0.61-2.43h-0.61c0 0.64-0.25 1.26-0.71 1.72-0.46 0.46-1.08 0.71-1.73 0.71h-7.02q-1.11 0.05-2.16-0.34-1.05-0.39-1.87-1.15-0.81-0.77-1.27-1.79-0.46-1.02-0.48-2.14c0.03-1.42 0.62-2.76 1.64-3.74 1.02-0.99 2.39-1.53 3.8-1.5h9.75v-3.66h-12.79v-3.96h12.78q0.98-0.01 1.89 0.36zm-3.72 14.27c0.49 0 0.96-0.2 1.3-0.54 0.34-0.34 0.54-0.81 0.54-1.29v-1.83h-8.83c-0.49 0-0.95 0.19-1.3 0.54-0.34 0.34-0.53 0.8-0.53 1.29 0 0.48 0.19 0.94 0.53 1.29 0.34 0.34 0.8 0.53 1.29 0.54h7z"/></clipPath><clipPath clipPathUnits="userSpaceOnUse" id="cp12"><path d="m115.46 6.07h15.93v24.46h-15.93z"/></clipPath><clipPath clipPathUnits="userSpaceOnUse" id="cp13"><path d="m125.21 6.07h-4.88v6.09h-4.87v4.27h4.87v8.53c0.05 1.48 0.67 2.88 1.75 3.91 1.07 1.02 2.5 1.58 3.98 1.55h5.24v-4.24h-6.09v-9.75h6.09v-4.27h-6.09z"/></clipPath><clipPath clipPathUnits="userSpaceOnUse" id="cp14"><path d="m134.96 12.16h20.15v18.37h-20.15z"/></clipPath><clipPath clipPathUnits="userSpaceOnUse" id="cp15"><path d="m153.29 13.95c1.14 1.14 1.78 2.69 1.78 4.3v4.88h-15.23v3.35h14.01v3.96h-12.8c-1.61 0-3.16-0.64-4.31-1.78-1.14-1.14-1.78-2.69-1.78-4.31v-6.1c0-1.61 0.64-3.16 1.78-4.3 1.15-1.15 2.7-1.79 4.31-1.79h7.93c1.61 0 3.16 0.64 4.31 1.79zm-2.47 5.83v-1.84c-0.01-0.48-0.2-0.95-0.54-1.29-0.35-0.34-0.81-0.53-1.29-0.53h-7.32c-0.48 0-0.94 0.2-1.29 0.54-0.34 0.34-0.53 0.81-0.53 1.29v1.83z"/></clipPath><clipPath clipPathUnits="userSpaceOnUse" id="cp16"><path d="m159.95 6.07h25.58v24.46h-25.58z"/></clipPath><clipPath clipPathUnits="userSpaceOnUse" id="cp17"><path d="m183.04 8.56c1.61 1.61 2.5 3.78 2.5 6.04v7.31c0 2.26-0.9 4.43-2.5 6.03-1.59 1.61-3.77 2.5-6.03 2.5h-17.06v-24.37h17.06c2.26 0 4.43 0.89 6.03 2.49zm-2.37 6.04c0-0.97-0.38-1.9-1.07-2.59-0.69-0.68-1.62-1.07-2.59-1.07h-12.19v14.63h12.19c0.97 0 1.9-0.39 2.59-1.07 0.68-0.69 1.07-1.62 1.07-2.59v-7.31z"/></clipPath><clipPath clipPathUnits="userSpaceOnUse" id="cp18"><path d="m190.42 6.13h26.82v24.4h-26.82z"/></clipPath><clipPath clipPathUnits="userSpaceOnUse" id="cp19"><path d="m216.99 21.36c0.37 1.44 0.29 2.97-0.22 4.37-0.52 1.4-1.45 2.6-2.68 3.46-1.22 0.85-2.68 1.31-4.17 1.32h-19.5v-24.38h18.28c1.34 0 2.65 0.37 3.8 1.06 1.14 0.7 2.07 1.7 2.69 2.88 0.61 1.19 0.89 2.53 0.8 3.86-0.09 1.34-0.55 2.62-1.31 3.72 1.13 0.97 1.93 2.26 2.31 3.71zm-21.69-5.54h13.4c0.65 0 1.27-0.26 1.73-0.72 0.46-0.45 0.71-1.07 0.71-1.72 0-0.65-0.26-1.27-0.71-1.72-0.46-0.46-1.08-0.72-1.73-0.72h-13.4zm16.34 8.83c0.44-0.5 0.68-1.15 0.68-1.82 0-0.67-0.24-1.32-0.68-1.82-0.44-0.51-1.05-0.83-1.72-0.92h-14.62v5.48h14.62c0.67-0.09 1.28-0.41 1.72-0.92z"/></clipPath></defs><style>.a{fill:#009dc7}</style><g clip-path="url(#cp1)"><path class="a" d="m1.5 3.6h7.3v7.3h-7.3z"/></g><g clip-path="url(#cp2)"><path class="a" d="m1.5 14.6h18.3v7.3h-18.3z"/></g><g clip-path="url(#cp3)"><path class="a" d="m12.5 3.6h7.2v7.3h-7.2z"/></g><g clip-path="url(#cp4)"><path class="a" d="m1.5 25.6h29.3v7.2h-29.3z"/></g><g clip-path="url(#cp5)"><path class="a" d="m23.4 3.6h7.3v18.3h-7.3z"/></g><g clip-path="url(#cp6)"><g clip-path="url(#cp7)"><path  d="m45.4 6.1h24.3v24.3h-24.3z"/></g></g><g clip-path="url(#cp8)"><g clip-path="url(#cp9)"><path  d="m75.2 12.2h14.1v18.2h-14.1z"/></g></g><g clip-path="url(#cp10)"><g clip-path="url(#cp11)"><path  d="m91.5 12.2h20.2v18.2h-20.2z"/></g></g><g clip-path="url(#cp12)"><g clip-path="url(#cp13)"><path  d="m115.5 6.1h15.8v24.3h-15.8z"/></g></g><g clip-path="url(#cp14)"><g clip-path="url(#cp15)"><path  d="m135 12.2h20.1v18.2h-20.1z"/></g></g><g clip-path="url(#cp16)"><g clip-path="url(#cp17)"><path  d="m159.9 6.1h25.6v24.3h-25.6z"/></g></g><g clip-path="url(#cp18)"><g clip-path="url(#cp19)"><path  d="m190.4 6.1h27v24.4h-27z"/></g></g></svg>