<svg xmlns="http://www.w3.org/2000/svg" xmlns:xlink="http://www.w3.org/1999/xlink" height="80" style="enable-background:new 0 0 512 512;" version="1.1" width="100" xml:space="preserve"><rect id="backgroundrect" width="100%" height="100%" x="0" y="0" fill="none" stroke="none" class="" style=""/><g class="currentLayer" style=""><title>Layer 1</title><g id="B_-_135_x2C__chart_x2C__Analytics_x2C__graphs_x2C__market_x2C__schedule_x2C__time_x2C__trends" class="" fill="#0404b8" fill-opacity="1"><g id="svg_1" fill="#0404b8" fill-opacity="1"><path d="M30.764771076774526,36.79553699468792 c-0.22951644516087685,-0.17999500708426858 -0.269717717056794,-0.5058061940648939 -0.08758134234467763,-0.7323167647776808 c0.18213637471211655,-0.22610608755080056 0.5201552322859542,-0.26614992058752507 0.749466568916749,-0.08635715508425015 l5.751243183477188,4.486122749599147 l5.069052212427078,-2.942210520294311 c0.25043751522916025,-0.146220663058344 0.5740987756973133,-0.06653748014688134 0.7291608244387096,0.1866689792570561 c0.14849857577879771,0.24592576248816891 0.060712124904038885,0.572343674211775 -0.19567353769747664,0.7187665788511124 l-5.366869798104997,3.128272774808387 c-0.18213637471211655,0.10637907160261262 -0.42498487432827187,0.0932333688380313 -0.600352667547708,-0.03984159145573135 L30.764771076774526,36.79553699468792 zM59.28470196750692,43.14511367156174 h-2.234247218174644 v8.699421606437983 h2.234247218174644 V43.14511367156174 zM64.71207878198587,37.80047541064491 h-2.2348625437648875 v14.0438576257738 h2.2348625437648875 V37.80047541064491 zM70.13863516234449,40.69556364256773 h-2.240810691137243 v11.148769393850987 h2.240810691137243 V40.69556364256773 zM75.55965361239095,36.26970888410467 h-2.227478636681964 v15.574624152314057 h2.227478636681964 V36.26970888410467 zM80.98703042686988,33.08784209033299 h-2.2348625437648875 v18.756490946085734 h2.2348625437648875 V33.08784209033299 zM86.54854822002197,28.289053856517793 h-2.227478636681964 v23.555279179900925 h2.227478636681964 V28.289053856517793 zM53.29061028441357,19.90937618963063 c0,0.28637407868688125 -0.23587480959339424,0.5258281105832562 -0.5336923952713141,0.5258281105832562 c-0.2967920430275143,0 -0.5328719611509889,-0.23945403189637526 -0.5328719611509889,-0.5258281105832562 v-4.226444559603417 l-1.6406631321196161,-0.9319292052183255 l-5.008340087523038,6.196682041642679 c-0.14849857577879771,0.18646673767606248 -0.41226814546323676,0.24653248723114998 -0.6280423191086719,0.15329911839311863 c-0.7090601884907508,-0.26635216216851876 -1.4306319973164547,-0.49913222189210654 -2.1868671477258843,-0.6991491454947372 c-0.7492614603866682,-0.19293846826785632 -1.5054966107960974,-0.3527093172527688 -2.2543478541226025,-0.47243633320095657 c-0.24346382520639898,-0.033369860863937485 -0.41226814546323676,-0.2194321153780129 -0.4526745258892356,-0.4392687139180123 l-1.1879886062303808,-7.833625398204553 h-3.442746677413146 l-1.201525769215741,7.833625398204553 c-0.03363779893331885,0.25320645940393716 -0.24264339108607416,0.4327969833262189 -0.48631232482255465,0.44614492767179414 c-0.7486461347964246,0.11972701594818762 -1.4847806492578945,0.27302613434130624 -2.2137363651665227,0.4657623610281693 c-0.763003731902109,0.19981468202163732 -1.4913441222204937,0.4392687139180123 -2.200404310711244,0.7056208760865309 c-0.2225427551381153,0.08655939666524369 -0.4727751618371944,0.013347944345574984 -0.6147102646533935,-0.15997309056590603 l-5.008340087523038,-6.196682041642679 l-2.976740097068632,1.6974135892789493 l2.942897189605232,7.381413223102953 c0.08778645087475886,0.2263083291317938 0.006768581492680013,0.47243633320095657 -0.18213637471211655,0.6123875072484996 c-0.594199411645272,0.4726385747819503 -1.1609142802596613,0.9784447688468434 -1.7013752570236553,1.510946851602887 c-0.5535879226891918,0.545647785520625 -1.0729227208548207,1.1115197291406063 -1.5459029912220958,1.6974135892789493 c-0.14849857577879771,0.1795905239222814 -0.39811565688763334,0.23925179031538168 -0.6140949390631498,0.15956860740391898 L12.134353072437863,24.90818134704846 l-1.7147073114789337,2.9351320649595363 l6.284730470218421,4.9385371662817406 c0.18890495620479655,0.15329911839311863 0.2496170811088353,0.40610109463506866 0.15506204874139656,0.6192637210022807 c-0.269717717056794,0.6987446623327501 -0.5066180693005946,1.4110395105920683 -0.7090601884907508,2.1496257643805494 c-0.19567353769747664,0.7389907369504687 -0.3575041679315531,1.4909249350845244 -0.4787233092095496,2.2299156720349935 c-0.03384290746340005,0.23278005972358762 -0.22336318925844034,0.40610109463506866 -0.4459059443965553,0.4390664723370191 l-7.944878912695755,1.184731181460275 v3.394220453814918 l7.944878912695755,1.1784616924494737 c0.2496170811088353,0.03296537770195033 0.43913736290387584,0.23925179031538168 0.4592379988518343,0.4857842775465318 c0.10788708682271755,0.7256427926048938 0.2699228255868754,1.4573528326395935 0.46559636328435183,2.18319786682548 l0.006768581492680013,0.013145702764581421 c0.19567353769747664,0.7454624675422624 0.43934247143395677,1.4642290463933745 0.7090601884907508,2.156299736553337 c0.08778645087475886,0.21983659853999993 0.013537162985360014,0.46596460260916295 -0.1685992117267567,0.5990395629029247 l-6.277961888725742,4.9387394078627365 l1.7147073114789337,2.941806037132324 l7.486051130904081,-2.9019644456765925 c0.2225427551381153,-0.08635715508425015 0.47236494477703184,-0.013145702764581421 0.6140949390631498,0.15956860740391898 c0.48631232482255465,0.5927700738921249 1.0056471229881834,1.1584397759311118 1.5459029912220958,1.6974135892789493 c0.5472295582566745,0.532502082756044 1.1207130083637435,1.0449822489937244 1.7149124200090151,1.5178230653566676 c0.18869984767471526,0.15289463523113137 0.2494119725787543,0.39942712246228157 0.1685992117267567,0.6055112934947189 L20.720811467227648,65.75491346031775 l2.976740097068632,1.6974135892789493 l5.008340087523038,-6.197086524804665 c0.15526715727147786,-0.19273622668686297 0.41903672695591676,-0.25259973466095675 0.6282474276387535,-0.15956860740391898 c0.7020864984679895,0.27322837592229987 1.4374005788091346,0.5058061940648939 2.180098566233204,0.6991491454947372 c0.7492614603866682,0.19941019885965053 1.5124703008188587,0.35897880626356926 2.2685003426982067,0.47243633320095657 c0.22931133663079556,0.033369860863937485 0.4048842383803134,0.21963435695900618 0.4385220373136318,0.4394709554990061 l1.201525769215741,7.833625398204553 h3.442746677413146 l1.1879886062303808,-7.833625398204553 c0.04040638042599881,-0.24653248723114998 0.2494119725787543,-0.42592076957243774 0.49308090631523416,-0.4459426860908002 c0.7420826618338257,-0.11365976851838092 1.4845755407278136,-0.27322837592229987 2.220504946659203,-0.46596460260916295 c0.7562351504094297,-0.19981468202163732 1.4913441222204937,-0.4327969833262189 2.200404310711244,-0.7056208760865309 c0.2225427551381153,-0.08655939666524369 0.4660065803445145,-0.013347944345574984 0.6077365746306316,0.16604033799571288 l5.008340087523038,6.197086524804665 l1.6406631321196161,-0.9386031773911123 v-4.21977058743063 c0,-0.2928458092786749 0.23587480959339424,-0.5258281105832562 0.5328719611509889,-0.5258281105832562 c0.29761247714783917,0 0.5336923952713141,0.23278005972358762 0.5336923952713141,0.5258281105832562 v4.525762099473885 c-0.006768581492680013,0.17999500708426858 -0.09434992383735769,0.3529115588337623 -0.269717717056794,0.45261665826358766 l-2.302138141631526,1.3111321695812497 c-0.22951644516087685,0.13307496029376248 -0.5195399066957106,0.07988542449245636 -0.6819858625200315,-0.12640098812097517 l-5.055720157971799,-6.249871577443985 c-0.6415794820940317,0.22651057071278746 -1.2891071115604185,0.4327969833262189 -1.9440186481097288,0.6059157766567067 c-0.6415794820940317,0.16604033799571288 -1.3026442745457782,0.31266548421604407 -1.9778615555731291,0.42592076957243774 l-1.201525769215741,7.8868149340058595 c-0.03363779893331885,0.2596781899957314 -0.25618055407143414,0.4726385747819503 -0.5334872867412327,0.4726385747819503 h-4.367170822489169 c-0.25700098819175893,0 -0.48631232482255465,-0.186264496095069 -0.5269238137786338,-0.4524144166825942 l-1.2013206606856601,-7.907039092105216 c-0.6819858625200315,-0.11345752693738738 -1.3430506549717771,-0.25988043157672475 -1.9911936100284073,-0.42592076957243774 c-0.6549115365493111,-0.1731187933304874 -1.302439166015697,-0.3794052059439189 -1.9372500666170487,-0.6059157766567067 l-5.048951576479118,6.249871577443985 c-0.16921453731700026,0.19961244044064394 -0.45246941735915425,0.2594759484147376 -0.6885493354826296,0.12640098812097517 l-3.7598444649187,-2.1433562753697486 c-0.23607991812347545,-0.11972701594818762 -0.34417211347627397,-0.3990226393002944 -0.24284849961615526,-0.6522290987042312 l2.9699715155759523,-7.447950703249834 c-0.5269238137786338,-0.42592076957243774 -1.025952867466223,-0.8785374278360252 -1.5054966107960974,-1.3445020304451867 c-0.4789284177396306,-0.479110305373744 -0.9383715251215459,-0.9782425272658499 -1.369919872412416,-1.484250962911737 l-7.553736945830882,2.9288625759487363 c-0.24264339108607416,0.08655939666524369 -0.5265135967184714,0 -0.6549115365493111,-0.23318454288557497 l-2.159792821755164,-3.6939424768473743 c-0.15526715727147786,-0.22610608755080056 -0.10788708682271755,-0.532502082756044 0.10788708682271755,-0.6987446623327501 l6.33867401362978,-4.97878324089946 c-0.22992666222103914,-0.6322071821858689 -0.4323687814111956,-1.2644143643717374 -0.6077365746306316,-1.903497760311387 l-0.006768581492680013,-0.013145702764581421 c-0.1685992117267567,-0.6388811543586561 -0.3170977875055542,-1.291312494643881 -0.43154834729087066,-1.956889537693687 l-7.992874308734757,-1.1843266982982867 c-0.269717717056794,-0.02669588869114995 -0.48549189070222926,-0.25320645940393716 -0.48549189070222926,-0.5264348353262369 v-4.306329984095872 c0,-0.25259973466095675 0.19567353769747664,-0.479110305373744 0.45862267326159084,-0.5189518968294755 l8.019743526175395,-1.184731181460275 c0.11465566831539765,-0.6724532568035876 0.2631542440941956,-1.324682355507818 0.43154834729087066,-1.956889537693687 c0.17536779321943655,-0.652431340285225 0.3778099124095931,-1.291312494643881 0.6145051561233122,-1.9168457046569618 l-6.33867401362978,-4.978580999318465 c-0.20244211919015656,-0.15977084898491245 -0.2631542440941956,-0.44614492767179414 -0.12819283130075765,-0.6722510152225933 l2.1599979302852454,-3.6939424768473743 c0.12142424980807763,-0.24653248723114998 0.41883161842583544,-0.35958553100654994 0.6752172810273502,-0.25988043157672475 l7.553736945830882,2.928458092786749 c0.4385220373136318,-0.5189518968294755 0.8977600361654658,-1.018286360302575 1.369919872412416,-1.4840487213307434 c0.47954374332987426,-0.47243633320095657 0.978572797017463,-0.9252552330455369 1.5054966107960974,-1.3507715194559877 l-2.9699715155759523,-7.447950703249834 c-0.09434992383735769,-0.23318454288557497 0,-0.5124801662376811 0.22931133663079556,-0.645959609693431 l3.7733816279040595,-2.1496257643805494 c0.22931133663079556,-0.12640098812097517 0.5193347981656293,-0.07988542449245636 0.6885493354826296,0.12640098812097517 l5.048951576479118,6.256343308035779 c0.6415794820940317,-0.23257781814259404 1.2891071115604185,-0.4392687139180123 1.9440186481097288,-0.6121852656675066 c0.6415794820940317,-0.16624257957670643 1.3026442745457782,-0.31266548421604407 1.9846301370658088,-0.42571852799144405 l1.2013206606856601,-7.887219417167849 c0.02030574447804003,-0.2596781899957314 0.25638566260151535,-0.46596460260916295 0.5269238137786338,-0.46596460260916295 h4.367170822489169 c0.25700098819175893,0 0.48631232482255465,0.186264496095069 0.5267187052485526,0.4457404445098068 l1.20808924217834,7.907241333686209 c0.6752172810273502,0.11305304377540024 1.3362820734790972,0.2596781899957314 1.9778615555731291,0.42571852799144405 c0.6549115365493111,0.17291655174949397 1.302439166015697,0.3796074475249125 1.9440186481097288,0.6121852656675066 l5.055720157971799,-6.256343308035779 c0.1556773743316401,-0.19961244044064394 0.45246941735915425,-0.2528019762419502 0.6819858625200315,-0.12640098812097517 l2.2609113270852017,1.2915147362248744 c0.18275170030236024,0.07988542449245636 0.31094453160311797,0.26594767900653155 0.31094453160311797,0.479110305373744 V19.90937618963063 zM58.69029744733156,55.25857540675201 c-0.2967920430275143,0 -0.5328719611509889,-0.23278005972358762 -0.5328719611509889,-0.5258281105832562 c0,-0.28637407868688125 0.23587480959339424,-0.5256258690022625 0.5328719611509889,-0.5256258690022625 h22.660800620432482 c0.2965869344974332,0 0.5336923952713141,0.23925179031538168 0.5336923952713141,0.5256258690022625 c0,0.2928458092786749 -0.23690035224380018,0.5258281105832562 -0.5336923952713141,0.5258281105832562 H58.69029744733156 zM69.22056938170097,57.781134646484674 c-0.2965869344974332,0 -0.5396405426436693,-0.23945403189637526 -0.5396405426436693,-0.5256258690022625 c0,-0.2930480508596688 0.2430536081462365,-0.52603035216425 0.5396405426436693,-0.52603035216425 h20.25754397347092 c0.29063878712507785,0 0.5336923952713141,0.23278005972358762 0.5336923952713141,0.52603035216425 c0,0.2861718371058878 -0.2430536081462365,0.5256258690022625 -0.5336923952713141,0.5256258690022625 H69.22056938170097 zM91.55094016017266,57.781134646484674 c-0.29084389565515917,0 -0.5404609767639944,-0.23945403189637526 -0.5404609767639944,-0.5256258690022625 c0,-0.2930480508596688 0.2496170811088353,-0.52603035216425 0.5404609767639944,-0.52603035216425 h2.5308341526720772 c0.29740736861775785,0 0.5404609767639944,0.23278005972358762 0.5404609767639944,0.52603035216425 c0,0.2861718371058878 -0.2430536081462365,0.5256258690022625 -0.5404609767639944,0.5256258690022625 H91.55094016017266 zM50.92099143638532,57.70792319416502 c-0.2967920430275143,0 -0.5330770696810706,-0.23985851505836245 -0.5330770696810706,-0.532502082756044 c0,-0.28637407868688125 0.23607991812347545,-0.5258281105832562 0.5330770696810706,-0.5258281105832562 h9.598874099270647 c0.29740736861775785,0 0.5336923952713141,0.23945403189637526 0.5336923952713141,0.5258281105832562 c0,0.29264356769768135 -0.23607991812347545,0.532502082756044 -0.5336923952713141,0.532502082756044 H50.92099143638532 zM84.63816737084555,25.507018668370385 c-0.026869217440638825,0.28637407868688125 -0.28325488004215427,0.49913222189210654 -0.5800469230696683,0.47243633320095657 c-0.2900234615348344,-0.019819674937368918 -0.5066180693005946,-0.2797001065140935 -0.47954374332987426,-0.5654674604579936 l0.04696985338859765,-0.5923655907301375 l-7.621012543697518,7.5142859418157215 c-0.2022370106600753,0.19981468202163732 -0.5462040156062682,0.19981468202163732 -0.7554147162891047,0 l-1.6273310776643375,-1.6106519510327124 l-6.155717204797339,6.070281053521703 c-0.20982602627308017,0.19961244044064394 -0.5470244497265934,0.19961244044064394 -0.7564402589395106,0 l-2.8887485376637927,-2.8485726682942927 l-7.735873320542997,7.6273389855911224 c-0.20982602627308017,0.2062864126134313 -0.5472295582566745,0.2062864126134313 -0.7564402589395106,0 s-0.20921070068283645,-0.5389738133478378 0,-0.7454624675422624 l8.11368323295259,-8.00047470252424 c0.2096209177429989,-0.2062864126134313 0.5470244497265934,-0.2062864126134313 0.7560300418793479,0 l2.8891587547239546,2.8485726682942927 l6.156742747447746,-6.069876570359717 c0.20921070068283645,-0.20648865419442503 0.5464091241363495,-0.20648865419442503 0.7556198248191863,0 l1.627125969134256,1.6106519510327124 l7.425133897469961,-7.314673501375079 l-0.9379613080613837,-0.033369860863937485 c-0.29084389565515917,-0.013145702764581421 -0.5201552322859542,-0.2596781899957314 -0.5133866507932743,-0.5458500271016188 c0.013537162985360014,-0.2928458092786749 0.263564461154358,-0.5191541384104685 0.5535879226891918,-0.5058061940648939 l2.106054386873886,0.07321145231966875 c0.14870368430887893,-0.006673972172787484 0.2967920430275143,0.0467178052095124 0.41144771134291186,0.15329911839311863 c0.12901326542108263,0.12640098812097517 0.17618822733976153,0.3059915120432563 0.14234531987636137,0.4726385747819503 L84.63816737084555,25.507018668370385 zM47.97788913825001,30.412388215369184 c-0.8237158568061481,-0.8051237339353625 -1.735013055956974,-1.5174185821946806 -2.7205595429971985,-2.129603847862187 l-1.423863415823775,2.43599984306743 c-0.14849857577879771,0.25300421782294386 -0.4727751618371944,0.33288964231539997 -0.7291608244387096,0.19293846826785632 c-0.2496170811088353,-0.1464229046393376 -0.3374035319835941,-0.46596460260916295 -0.19567353769747664,-0.7187665788511124 l1.423863415823775,-2.43599984306743 c-1.9911936100284073,-1.0516562211665124 -4.252310045643689,-1.6773916727605869 -6.661719948507689,-1.7572770972530427 v2.8087310768385616 c0,0.2928458092786749 -0.23690035224380018,0.5258281105832562 -0.5269238137786338,0.5258281105832562 c-0.2967920430275143,0 -0.5404609767639944,-0.23278005972358762 -0.5404609767639944,-0.5258281105832562 v-2.8087310768385616 c-2.4024362128412386,0.07988542449245636 -4.663757756986602,0.7056208760865309 -6.661719948507689,1.7572770972530427 l1.4306319973164547,2.43599984306743 c0.14172999428611768,0.2528019762419502 0.05414865194144011,0.572343674211775 -0.19567353769747664,0.7187665788511124 c-0.25638566260151535,0.13995117404754376 -0.5874308301525917,0.060065749555087415 -0.7359294059313896,-0.19293846826785632 l-1.4170948343310947,-2.43599984306743 c-0.9923150685329043,0.6121852656675066 -1.8970487947211314,1.3244801139268247 -2.7205595429971985,2.129603847862187 c-0.8169472753134679,0.8122021892701374 -1.5461080997521772,1.7105592920435306 -2.1604081473454078,2.6823300887175865 l2.4707373533582815,1.4043655384192808 c0.2496170811088353,0.1464229046393376 0.3374035319835941,0.46596460260916295 0.19587864622755777,0.7187665788511124 c-0.14849857577879771,0.25320645940393716 -0.47236494477703184,0.3395636144881874 -0.729365932968791,0.1931407098488499 l-2.470122027768038,-1.4110395105920683 c-1.0665643564223033,1.9700352404582682 -1.7013752570236553,4.206624884666048 -1.7821880178756526,6.5758850060056036 h2.8485472657678743 c0.2900234615348344,0 0.5336923952713141,0.23278005972358762 0.5336923952713141,0.5258281105832562 c0,0.28637407868688125 -0.2436689337364802,0.5258281105832562 -0.5336923952713141,0.5258281105832562 h-2.8485472657678743 c0.08081276085199766,2.3696646045015433 0.7156236614533493,4.599175793374549 1.7821880178756526,6.569211033832817 l2.470122027768038,-1.4110395105920683 c0.25700098819175893,-0.13954669088555652 0.5808673571899929,-0.053391777382299874 0.729365932968791,0.19293846826785632 c0.14152488575603656,0.25300421782294386 0.05394354341135881,0.5725459157927684 -0.19587864622755777,0.7189688204321063 l-2.4707373533582815,1.4043655384192808 c0.614300047593231,0.9782425272658499 1.3434608720319396,1.8768018716202368 2.1604081473454078,2.682127847136594 c0.8237158568061481,0.8053259755163561 1.7282444744642935,1.5244970375294558 2.7205595429971985,2.1300083310241744 l1.4170948343310947,-2.43599984306743 c0.14849857577879771,-0.24653248723114998 0.47954374332987426,-0.33288964231539997 0.7359294059313896,-0.18646673767606248 c0.2496170811088353,0.13974893246655015 0.3374035319835941,0.4657623610281693 0.19567353769747664,0.7120926066783251 l-1.4306319973164547,2.43599984306743 c1.9979621915210877,1.0514539795855185 4.259283735666452,1.6773916727605869 6.661719948507689,1.7570748556720495 v-2.8087310768385616 c0,-0.28637407868688125 0.2436689337364802,-0.5258281105832562 0.5404609767639944,-0.5258281105832562 c0.2900234615348344,0 0.5269238137786338,0.23945403189637526 0.5269238137786338,0.5258281105832562 v2.8087310768385616 c2.4094099028639993,-0.07988542449245636 4.6705263384792834,-0.7056208760865309 6.661719948507689,-1.7570748556720495 l-1.423863415823775,-2.43599984306743 c-0.14172999428611768,-0.24653248723114998 -0.05394354341135881,-0.572343674211775 0.19567353769747664,-0.7120926066783251 c0.25638566260151535,-0.1466251462203311 0.5808673571899929,-0.060065749555087415 0.7291608244387096,0.18646673767606248 l1.4306319973164547,2.43599984306743 c0.9787779055475446,-0.6055112934947189 1.8970487947211314,-1.324682355507818 2.713790961504518,-2.1300083310241744 c0.8167421667833873,-0.8051237339353625 1.5393395182594976,-1.7038853198707433 2.1604081473454078,-2.682127847136594 l-2.4707373533582815,-1.4043655384192808 c-0.2496170811088353,-0.1464229046393376 -0.3374035319835941,-0.46596460260916295 -0.19587864622755777,-0.7189688204321063 c0.14849857577879771,-0.24633024565015624 0.4721598362469508,-0.3326874007344068 0.7291608244387096,-0.19293846826785632 l2.470122027768038,1.4110395105920683 c1.0665643564223033,-1.9700352404582682 1.7013752570236553,-4.1997486709122684 1.7821880178756526,-6.569211033832817 H49.60480999885419 c-0.2902285700649153,0 -0.5336923952713141,-0.23945403189637526 -0.5336923952713141,-0.5258281105832562 c0,-0.2930480508596688 0.24346382520639898,-0.5258281105832562 0.5336923952713141,-0.5258281105832562 h2.8485472657678743 c-0.08101786938207889,-2.3692601213395554 -0.7156236614533493,-4.605849765547336 -1.7821880178756526,-6.5758850060056036 l-2.470122027768038,1.4110395105920683 c-0.25700098819175893,0.1464229046393376 -0.5808673571899929,0.060065749555087415 -0.7291608244387096,-0.1931407098488499 c-0.14152488575603656,-0.2528019762419502 -0.05394354341135881,-0.572343674211775 0.19587864622755777,-0.7187665788511124 l2.4707373533582815,-1.4043655384192808 c-0.6077365746306316,-0.9648945829202753 -1.3301288175766612,-1.8571844382638618 -2.1335389299047685,-2.6558364416074296 L47.97788913825001,30.412388215369184 z" style="fill-rule:evenodd;clip-rule:evenodd;" id="svg_2" fill="#0404b8" fill-opacity="1"/></g></g><g id="Layer_1"/></g></svg>