<?xml version="1.0" encoding="utf-8"?>
<!-- Generator: Adobe Illustrator 24.0.1, SVG Export Plug-In . SVG Version: 6.00 Build 0)  -->
<svg version="1.1" id="Layer_1" xmlns="http://www.w3.org/2000/svg" xmlns:xlink="http://www.w3.org/1999/xlink" x="0px" y="0px"
	 viewBox="0 0 120 60" width="120" height="60" style="enable-background:new 0 0 120 60;" xml:space="preserve">
<style type="text/css">
	.st0{fill-rule:evenodd;clip-rule:evenodd;fill:#393C42;}
	.st1{fill-rule:evenodd;clip-rule:evenodd;fill:#55BFCE;}
	.st2{fill-rule:evenodd;clip-rule:evenodd;fill:#FFFFFF;}
	.st3{fill-rule:evenodd;clip-rule:evenodd;fill:#25ABAD;}
</style>
<g transform="matrix(1 0 0 -1 6 191.999995)">
	<g>
		<path class="st0" d="M92.3,168.7c0-0.6-0.2-1.1-0.6-1.4c-0.4-0.4-0.9-0.5-1.4-0.5c-0.6,0-1,0.2-1.4,0.5c-0.4,0.3-0.6,0.8-0.6,1.4
			c0,0.6,0.2,1.1,0.6,1.4c0.4,0.3,0.9,0.5,1.4,0.5c0.6,0,1-0.2,1.4-0.5C92.1,169.8,92.3,169.3,92.3,168.7"/>
		<path class="st0" d="M88.6,165.1H92v-11.6h-3.4V165.1z"/>
		<path class="st0" d="M53.9,162.4c-0.3,0.1-0.7,0.2-1.1,0.2c-0.4,0.1-0.9,0.1-1.4,0.1c-0.2,0-0.5,0-0.8-0.1c-0.3,0-0.5-0.1-0.7-0.1
			v-9.1h-3.5v11.3c0.6,0.2,1.4,0.4,2.2,0.6c0.9,0.2,1.8,0.3,2.9,0.3c0.2,0,0.4,0,0.7,0c0.3,0,0.5-0.1,0.8-0.1c0.3,0,0.5-0.1,0.8-0.1
			c0.3-0.1,0.5-0.1,0.7-0.2L53.9,162.4z"/>
		<path class="st0" d="M102.8,159.5c0,1-0.2,1.9-0.6,2.5c-0.4,0.6-1.1,0.9-1.9,0.9c-0.8,0-1.4-0.3-1.9-0.9c-0.4-0.6-0.7-1.4-0.7-2.5
			c0-1,0.2-1.9,0.7-2.5c0.4-0.6,1.1-0.9,1.9-0.9c0.8,0,1.4,0.3,1.9,0.9C102.6,157.6,102.8,158.5,102.8,159.5 M106.4,159.5
			c0-0.9-0.1-1.8-0.4-2.6c-0.3-0.8-0.7-1.4-1.2-2c-0.5-0.5-1.2-1-1.9-1.3c-0.8-0.3-1.6-0.5-2.5-0.5c-0.9,0-1.7,0.2-2.5,0.5
			c-0.8,0.3-1.4,0.7-1.9,1.3c-0.5,0.6-1,1.2-1.3,2c-0.3,0.8-0.4,1.6-0.4,2.6c0,0.9,0.2,1.8,0.5,2.6c0.3,0.8,0.7,1.4,1.3,2
			c0.5,0.5,1.2,1,1.9,1.3c0.8,0.3,1.6,0.5,2.5,0.5c0.9,0,1.7-0.1,2.5-0.5c0.7-0.3,1.4-0.7,1.9-1.3c0.5-0.5,1-1.2,1.3-2
			C106.3,161.3,106.4,160.4,106.4,159.5"/>
		<path class="st0" d="M63.5,160.7c0,0.3-0.1,0.6-0.2,0.8c-0.1,0.3-0.2,0.5-0.4,0.7c-0.2,0.2-0.4,0.4-0.7,0.5
			c-0.3,0.1-0.6,0.2-1,0.2c-0.4,0-0.7-0.1-1-0.2c-0.3-0.1-0.5-0.3-0.7-0.5c-0.2-0.2-0.3-0.5-0.4-0.7c-0.1-0.3-0.2-0.6-0.2-0.8H63.5z
			 M55.2,159.4c0,1.1,0.2,2,0.5,2.8c0.3,0.8,0.8,1.5,1.3,2c0.6,0.5,1.2,0.9,1.9,1.2c0.7,0.3,1.5,0.4,2.2,0.4c1.8,0,3.2-0.5,4.2-1.5
			c1-1,1.5-2.5,1.5-4.6c0-0.2,0-0.4,0-0.6c0-0.2,0-0.4-0.1-0.6h-8c0.1-0.7,0.4-1.2,1-1.7c0.6-0.4,1.4-0.6,2.4-0.6
			c0.6,0,1.3,0.1,1.9,0.2c0.6,0.1,1.1,0.3,1.5,0.4l0.5-2.7c-0.2-0.1-0.4-0.2-0.8-0.3c-0.3-0.1-0.7-0.2-1.1-0.2
			c-0.4-0.1-0.8-0.1-1.2-0.2c-0.4,0-0.9-0.1-1.3-0.1c-1.1,0-2.1,0.2-2.9,0.5c-0.8,0.3-1.5,0.7-2.1,1.3c-0.5,0.5-0.9,1.2-1.2,2
			C55.3,157.7,55.2,158.5,55.2,159.4z"/>
		<path class="st0" d="M75.7,159.8c0,1.1-0.1,1.9-0.4,2.3c-0.3,0.5-0.8,0.7-1.5,0.7c-0.2,0-0.4,0-0.7,0c-0.2,0-0.5-0.1-0.7-0.1v-9.2
			h-3.5V165c0.3,0.1,0.7,0.2,1.1,0.2c0.4,0.1,0.8,0.2,1.3,0.2c0.4,0.1,0.9,0.1,1.4,0.2c0.5,0,0.9,0.1,1.4,0.1c0.9,0,1.6-0.1,2.2-0.3
			c0.6-0.2,1-0.5,1.4-0.8c0.5,0.4,1.1,0.6,1.7,0.8c0.7,0.2,1.3,0.3,1.8,0.3c1,0,1.8-0.1,2.5-0.4c0.6-0.3,1.1-0.6,1.5-1.1
			c0.4-0.5,0.6-1.1,0.8-1.7c0.1-0.7,0.2-1.4,0.2-2.2v-6.7h-3.5v6.3c0,1.1-0.1,1.9-0.4,2.3c-0.3,0.5-0.8,0.7-1.5,0.7
			c-0.2,0-0.4,0-0.8-0.1c-0.3-0.1-0.6-0.2-0.8-0.3c0.1-0.4,0.2-0.7,0.2-1.1c0-0.4,0-0.8,0-1.2v-6.5h-3.5V159.8z"/>
		<path class="st0" d="M40.3,156.2c-0.2,0-0.4-0.1-0.7-0.1c-0.3,0-0.6,0-0.9,0c-1,0-1.7,0.3-2.2,0.9c-0.5,0.6-0.7,1.5-0.7,2.5
			c0,2.2,0.8,3.3,2.5,3.3c0.4,0,0.7,0,1.1-0.1c0.4-0.1,0.6-0.2,0.9-0.3V156.2z M40.3,169.7v-4.6c-0.4,0.2-0.8,0.3-1.2,0.4
			c-0.4,0.1-0.8,0.1-1.3,0.1c-0.9,0-1.7-0.1-2.4-0.4c-0.7-0.3-1.3-0.7-1.7-1.2c-0.5-0.5-0.8-1.2-1.1-2c-0.3-0.8-0.4-1.6-0.4-2.6
			c0-0.9,0.2-1.8,0.4-2.6c0.3-0.8,0.7-1.4,1.3-2c0.6-0.5,1.2-1,2-1.2c0.8-0.3,1.7-0.4,2.7-0.4c0.4,0,0.9,0,1.3,0.1
			c0.5,0,0.9,0.1,1.4,0.2c0.4,0.1,0.9,0.1,1.3,0.2c0.4,0.1,0.8,0.2,1.1,0.3v16.8L40.3,169.7z"/>
		<path class="st0" d="M10.1,157.4c-1-0.5-3-1.5-2.9-2.7c0.3-0.7,1.1,0,1.4,0.3C9.3,155.7,9.8,156.6,10.1,157.4 M16.3,160
			c-0.7-1.8-2.7-2.6-3.2-2.3c-0.3,0.2,0,0.7,0,1.1c-0.4-0.2-1.1-0.5-1.5-0.6c1-0.7,1.5-2,1.5-3.2c0-1.2-0.5-2.3-1.4-3.1
			c1.7-2.5,0.8-4.6-1.5-6.3l-0.1-0.1l0,0.2c-0.3,1.2-0.8,2.2-1.6,3.1c-0.4,0.5-0.9,0.9-1.3,1.3c-0.6,0.6-1.2,1.1-1.7,1.7
			c-2.3,2.4-3.2,6.6-2.9,9.8c0.2,1.7,0.7,3.3,1.4,4.7c0.6,1.2,1.4,2.3,2.3,3.2c2,2.1,4.7,3.8,7.5,4.7c2.5,0.7,5.3,0.9,7.7-0.3
			c0.4-0.2,1-0.5,1.3-0.8c0.2-0.2,0.4-0.4,0.6-0.6c0,0,0,0,0.1-0.1l11,5.6c0.9,0.5,1.6,0.5,1.9,0.1c0.3-0.4-0.1-1.2-0.8-1.6
			l-9.5-6.9c0.2-0.5-0.1-1.3-0.5-1.8c1.3-0.4,0.2-2.3-0.4-2.9c-1.6-1.9-4.5-3.3-7.1-4.4C17.3,160.3,16.9,160.2,16.3,160"/>
	</g>
	<path class="st1" d="M25,166.4c0.7,0.9,0.2,1.4-0.3,0.9c-1-1-2.4-1.3-3.8-1.1c-1.9,0.3-2,0.6-1.7,0.9c2.3-0.8,5,0.3,6.1,2.1
		c0.5,0.7-1.1,1.2-2.1,2.5c-4.5,6.1-18.7,0.8-20-9.9c-0.4-3.2,0.5-6.8,2.7-9.3c1.7-1.9,3.4-2.7,4.5-5.6c2,1.7,1.7,3.6,0.2,5.3
		c2.5,1.3,2.1,4.6,0.4,5.6c-0.8-3-3.7-5.2-4.4-3.1c-0.4,2.2,3.1,3.6,8.8,5.7C20.1,162.3,23.2,163.8,25,166.4"/>
	<path class="st2" d="M25,166.4c0.7,0.9,0.2,1.4-0.3,0.9c-0.8-0.9-2.1-1.2-3.2-1.2c-2,0.1-3.5,0.5-4.9,0.4c-2.8-0.3-5.6-2.1-7-3.6
		c-2.5-2.5-5.2-7.8-2.5-8.8c-0.2,0.1-0.4,0.4-0.5,0.7c-0.4,2.2,3.1,3.6,8.8,5.7C20.1,162.3,23.2,163.8,25,166.4"/>
	<path class="st1" d="M12.8,162.3c1.5-0.7,1.2-3.2,1-3.9c2.8,0.8,1.9,4.9,3.2,6.1C15.4,164.6,12.4,163,12.8,162.3"/>
	<path class="st0" d="M17.5,169.7c0.4,0.2,0.9,0.1,1.1-0.3c0.2-0.4,0.1-0.9-0.3-1.1c-0.4-0.2-0.9-0.1-1.1,0.3
		C16.9,169,17.1,169.5,17.5,169.7"/>
	<path class="st1" d="M24.2,169.4l11.1,7.7c0.3,0.2,0.7,0.7,0.6,0.9c-0.2,0.2-0.7,0.1-1.1-0.1l-12-6.5
		C22.4,170.6,23.2,168.9,24.2,169.4"/>
	<path class="st2" d="M23.2,170.9l11.6,6.8c0.5,0.3,0.7,0.3,1,0.3c-0.2,0.2-0.7,0.1-1-0.1l-12-6.5c-0.3-0.6,0.1-1.7,0.7-2.1
		C23.3,169.9,23.2,170.4,23.2,170.9"/>
	<path class="st3" d="M6.1,167.8c0.4,0.1,0.7-0.2,0.7-0.6c0-0.4-0.3-0.8-0.7-0.8c-0.4-0.1-0.7,0.2-0.7,0.6
		C5.4,167.4,5.7,167.8,6.1,167.8"/>
	<path class="st3" d="M8.4,170.3c0.3,0.1,0.6-0.2,0.6-0.5c0-0.3-0.3-0.7-0.6-0.7c-0.3-0.1-0.6,0.2-0.6,0.5
		C7.8,169.9,8,170.3,8.4,170.3"/>
	<path class="st3" d="M15.2,173.6c0.3,0,0.5-0.3,0.5-0.6c-0.1-0.3-0.4-0.6-0.8-0.6c-0.3,0-0.5,0.3-0.5,0.6
		C14.5,173.4,14.9,173.6,15.2,173.6"/>
	<path class="st3" d="M17.3,174c0.3-0.1,0.4-0.3,0.3-0.6c-0.1-0.3-0.4-0.4-0.7-0.4c-0.3,0.1-0.4,0.3-0.3,0.6
		C16.7,173.9,17,174,17.3,174"/>
	<path class="st3" d="M8.4,168.8c0.2,0,0.4-0.1,0.4-0.4c0-0.3-0.2-0.5-0.5-0.5c-0.2,0-0.4,0.1-0.4,0.4C8,168.5,8.2,168.7,8.4,168.8"
		/>
	<path class="st3" d="M4.9,165.9c0.3,0,0.5-0.1,0.5-0.4c0-0.3-0.2-0.5-0.5-0.6c-0.3,0-0.5,0.1-0.5,0.4
		C4.4,165.6,4.6,165.8,4.9,165.9"/>
	<path class="st3" d="M25.7,173l-0.5-0.3c0-0.8,0.7-1.7,1.1-1.8C25.9,171.4,25.6,172.4,25.7,173 M28.5,174.5l-0.5-0.2
		c0.1-0.7,0.6-1.5,0.9-1.5C28.7,173.1,28.4,174,28.5,174.5 M31.2,176l-0.3-0.2c0-0.4,0.3-1.1,0.7-1.2
		C31.4,174.9,31.1,175.4,31.2,176 M33.8,177.4l-0.3-0.2c0-0.3,0.4-0.8,0.6-0.9C34,176.5,33.8,177,33.8,177.4"/>
</g>
</svg>
