<?xml version="1.0" ?><svg viewBox="0 0 60 60" xmlns="http://www.w3.org/2000/svg"><rect fill="#fff" height="60" rx="10" width="60"/><rect fill="#f1f3f4" height="32" rx="4" width="44" x="8" y="14"/><path d="M48,47.5H12A5.506,5.506,0,0,1,6.5,42V18A5.506,5.506,0,0,1,12,12.5H48A5.506,5.506,0,0,1,53.5,18V42A5.506,5.506,0,0,1,48,47.5Zm-36-32A2.5,2.5,0,0,0,9.5,18V42A2.5,2.5,0,0,0,12,44.5H48A2.5,2.5,0,0,0,50.5,42V18A2.5,2.5,0,0,0,48,15.5Z" fill="#f29580"/><path d="M25.577,28.825a6,6,0,0,1,8.846,0L49.772,45.569A3.956,3.956,0,0,1,48,46H12a3.956,3.956,0,0,1-1.772-.431Z" fill="#f1f3f4"/><path d="M48,47.5H12a5.453,5.453,0,0,1-2.439-.587,1.5,1.5,0,0,1-.438-2.357L24.471,27.812a7.5,7.5,0,0,1,11.058,0L50.877,44.556a1.5,1.5,0,0,1-.438,2.357A5.453,5.453,0,0,1,48,47.5Zm-34.756-3H46.756L33.317,29.839a4.5,4.5,0,0,0-6.634,0h0ZM25.577,28.825h0Z" fill="#f29580"/><path d="M25.577,31.175a6,6,0,0,0,8.846,0L49.772,14.431A3.956,3.956,0,0,0,48,14H12a3.956,3.956,0,0,0-1.772.431Z" fill="#f1f3f4"/><path d="M30,34.621a7.518,7.518,0,0,1-5.529-2.433L9.123,15.444a1.5,1.5,0,0,1,.438-2.357A5.453,5.453,0,0,1,12,12.5H48a5.453,5.453,0,0,1,2.439.587,1.5,1.5,0,0,1,.438,2.357L35.529,32.188A7.518,7.518,0,0,1,30,34.621ZM13.244,15.5,26.683,30.161h0a4.5,4.5,0,0,0,6.634,0L46.756,15.5Z" fill="#f2bf80"/></svg>