<?xml version="1.0" encoding="utf-8"?>
<!-- Generator: Adobe Illustrator 26.0.3, SVG Export Plug-In . SVG Version: 6.00 Build 0)  -->
<svg version="1.0" id="katman_1" xmlns="http://www.w3.org/2000/svg" xmlns:xlink="http://www.w3.org/1999/xlink" x="0px" y="0px"
	 viewBox="0 0 442 337" style="enable-background:new 0 0 442 337;" xml:space="preserve">
<style type="text/css">
	.st0{clip-path:url(#SVGID_00000054983605256565557630000007577413250705996165_);}
	.st1{fill:#F72A30;}
	.st2{fill:#FFFFFF;}
	.st3{fill:url(#SVGID_00000155131453150571515380000002044841326923386279_);}
</style>
<g>
	<defs>
		<rect id="SVGID_1_" x="152" y="148.5" width="254" height="40"/>
	</defs>
	<clipPath id="SVGID_00000029757029047911224780000011779769768941631120_">
		<use xlink:href="#SVGID_1_"  style="overflow:visible;"/>
	</clipPath>
	<g style="clip-path:url(#SVGID_00000029757029047911224780000011779769768941631120_);">
		<path class="st1" d="M160.3,157.2v7c0,0.2,0.2,0.4,0.4,0.4h9.7c0.2,0,0.4,0.2,0.4,0.4v7c0,0.2-0.2,0.4-0.4,0.4h-9.8
			c-0.2,0-0.4,0.2-0.4,0.4v14.8c0,0.2-0.2,0.4-0.4,0.4h-7.5c-0.2,0-0.4-0.2-0.4-0.4v-38c0-0.2,0.2-0.4,0.4-0.4h19.9
			c0.2,0,0.4,0.2,0.4,0.4v7c0,0.2-0.2,0.4-0.4,0.4h-11.6C160.5,156.9,160.3,157,160.3,157.2z"/>
		<path class="st1" d="M180.5,187.5v-38c0-0.2,0.2-0.4,0.4-0.4h7.5c0.2,0,0.4,0.2,0.4,0.4v38c0,0.2-0.2,0.4-0.4,0.4h-7.5
			C180.7,187.9,180.5,187.7,180.5,187.5z"/>
		<path class="st1" d="M205.8,165.2c0,0.2,0.2,0.4,0.4,0.4h6.9c5.6,0,5.6-8.7,0-8.7h-6.9c-0.2,0-0.4,0.2-0.4,0.4V165.2z
			 M218.1,187.7l-8.1-14.4c-0.1-0.1-0.2-0.2-0.4-0.2h-3.3c-0.2,0-0.4,0.2-0.4,0.4v14c0,0.2-0.2,0.4-0.4,0.4h-7.5
			c-0.2,0-0.4-0.2-0.4-0.4v-38c0-0.2,0.2-0.4,0.4-0.4h16c14.6,0,16.2,19,4.5,22.7c-0.2,0.1-0.4,0.3-0.2,0.6l9,15
			c0.2,0.3,0,0.6-0.4,0.6h-8.5C218.3,187.9,218.1,187.8,218.1,187.7z"/>
		<path class="st1" d="M281.7,180.2h-2.4h-4.6c-0.2,0-0.4-0.2-0.4-0.4v-7c0-0.2,0.2-0.4,0.4-0.4h7c1.1,0,2.1,0.4,2.9,1
			c0.3,0.2,0.1,0.7-0.3,0.7h-4.6c-0.1,0-0.2,0.1-0.3,0.1c-0.6,0.6-0.1,1.3,0.5,1.3h5.9c0,0,0,0,0,0h2.8c0.2,0,0.4,0.1,0.4,0.3
			c0,0.2-0.2,0.4-0.4,0.4h-2.3c-0.2,0-0.4,0.2-0.4,0.3C285.7,178.6,284,180.2,281.7,180.2z M270.9,158.8h3.1c0.2,0,0.4-0.2,0.4-0.4
			v-1.2c0-0.2,0.2-0.4,0.4-0.4h7c1.9,0,3.2,1.1,3.7,2.7c0.1,0.2-0.1,0.5-0.4,0.5h-1.3c-0.1,0-0.2,0.1-0.3,0.1
			c-0.6,0.6-0.1,1.3,0.5,1.3h1.6c0,0,0,0,0,0h2.3c0.2,0,0.4,0.1,0.4,0.3c0,0.2-0.2,0.4-0.4,0.4h-2.2c-0.2,0-0.3,0.1-0.4,0.2
			c-0.6,1.3-1.8,2.2-3.5,2.2h-2.4h-4.6c-0.2,0-0.4-0.2-0.4-0.4v-4.3c0-0.2-0.2-0.4-0.4-0.4h-3.1c-0.2,0-0.4-0.2-0.4-0.4
			C270.5,158.9,270.7,158.8,270.9,158.8z M286,183.4h6c0.1,0,0.3-0.1,0.3-0.2c1.5-1.9,2.4-4.3,2.4-7c0-2.9-1.4-5.7-3.9-7.5
			c-0.2-0.2-0.2-0.5,0-0.6c2.3-1.7,3.3-4.6,3.4-7.3c0.2-6.8-4.4-11.8-11.8-11.8h-16c-0.2,0-0.4,0.2-0.4,0.4v32.8
			c0,0.2-0.2,0.4-0.4,0.4h-4c-0.1,0-0.2,0.1-0.3,0.1c-0.6,0.6-0.1,1.3,0.5,1.3h4.2v0h4.5c0.2,0,0.4,0.1,0.4,0.3
			c0,0.2-0.2,0.4-0.4,0.4h-4.1c-0.2,0-0.4,0.2-0.4,0.4v2.3c0,0.2,0.2,0.4,0.4,0.4h16c3.2,0,6.2-1.2,8.4-3.1c0.3-0.2,0.1-0.7-0.3-0.7
			H286c-0.2,0-0.4-0.2-0.4-0.4C285.6,183.5,285.8,183.4,286,183.4z"/>
		<path class="st1" d="M341,169.3h-5c-0.7,0-1.2,0.5-1.3,1.1c0,0.2-0.1,0.5-0.1,0.7c-0.2,0.8-0.9,1.3-1.7,1.3h-8.3
			c-0.4,0-0.8,0.3-0.8,0.7c0,0.4,0.4,0.7,0.8,0.7h9.1c0,0,0,0,0,0h1.6c0.2,0,0.4,0.1,0.4,0.3c0,0.2-0.2,0.4-0.4,0.4H335
			c-1,0-1.9,0.5-2.5,1.2c-2,2.7-5.4,4.6-10.1,4.6c-8.6,0-12.7-6.4-12.4-12.5c0-1.2-1-2.2-2.2-2.2h-2.3c-0.2,0-0.4-0.1-0.4-0.3
			c0-0.2,0.2-0.4,0.4-0.4h3c1.1,0,2.1-0.6,2.6-1.6c1.7-3.9,5.5-6.9,11.4-6.9c6.9,0,10.9,4.1,12.1,9c0.2,0.8-0.5,1.6-1.4,1.6h-1
			c-0.1,0-0.2,0.1-0.3,0.1c-0.6,0.6-0.1,1.3,0.5,1.3h2.5c0,0,0,0,0,0h6.2c0.2,0,0.4,0.2,0.4,0.4C341.4,169.2,341.2,169.3,341,169.3z
			 M342.2,161.1h-3.1c-0.2,0-0.4-0.1-0.4-0.3c0-0.2,0.2-0.4,0.4-0.4h1.4c0.9,0,1.4-0.9,1-1.6c-3.2-5.9-9.5-10.3-19-10.3
			c-8.1,0-13.9,3.2-17.4,7.8c-0.7,0.9-1.8,1.4-2.9,1.4h-3c-0.1,0-0.2,0.1-0.3,0.1c-0.6,0.6-0.1,1.3,0.5,1.3h3.9c0,0,0,0,0,0h4.8
			c0.2,0,0.4,0.1,0.4,0.3c0,0.2-0.2,0.4-0.4,0.4h-3.3c-1.1,0-2.1,0.7-2.5,1.7c-4.1,11.7,2.6,26.9,20.3,26.9
			c17.7,0,24.5-15.4,20.2-27.1C342.5,161.2,342.4,161.1,342.2,161.1z"/>
		<path class="st1" d="M370.4,184.8h2.4c1.2,0,2.1-0.9,2.1-2v-2.3c0-0.2-0.2-0.4-0.4-0.4h-12.4c-0.2,0-0.4-0.2-0.4-0.4v-16.1
			c0-0.6-0.6-1.2-1.2-1.2h-0.8c-0.2,0-0.4-0.1-0.4-0.3c0-0.2,0.2-0.4,0.4-0.4h1.7c0.2,0,0.4-0.2,0.4-0.4v-12c0-0.2-0.2-0.4-0.4-0.4
			h-7.5c-0.2,0-0.4,0.2-0.4,0.4v1.7c0,0.7-0.6,1.2-1.3,1.2h-5.9c-0.1,0-0.2,0.1-0.3,0.1c-0.6,0.6-0.1,1.3,0.5,1.3h7v0h1.7
			c0.2,0,0.4,0.1,0.4,0.3c0,0.2-0.2,0.4-0.4,0.4h-1.3c-0.2,0-0.4,0.2-0.4,0.4v13.2c0,0.2-0.2,0.4-0.4,0.4h-2.5
			c-0.1,0-0.2,0.1-0.3,0.1c-0.6,0.6-0.1,1.3,0.5,1.3h2.7v0h2.4c0.2,0,0.4,0.1,0.4,0.3c0,0.2-0.2,0.4-0.4,0.4h-1.2
			c-0.7,0-1.3,0.5-1.3,1.2v8c0,0.7-0.6,1.3-1.4,1.3h-5.8c-0.1,0-0.2,0.1-0.3,0.1c-0.6,0.6-0.1,1.3,0.5,1.3h7v0h1.7
			c0.2,0,0.4,0.1,0.4,0.3c0,0.2-0.2,0.4-0.4,0.4H354c-0.3,0-0.6,0.2-0.6,0.5c0,0.3-0.2,0.5-0.6,0.5h-3.8c-0.1,0-0.2,0.1-0.3,0.1
			c-0.6,0.6-0.1,1.3,0.5,1.3h4.2v0h4.5c0.2,0,0.4,0.1,0.4,0.3c0,0.2-0.2,0.4-0.4,0.4h-3.9c-0.4,0-0.7,0.3-0.7,0.6
			c0,0.4,0.3,0.6,0.7,0.6h20.4c0.2,0,0.4-0.2,0.4-0.4v-1.6c0-0.2-0.2-0.4-0.4-0.4h-4.1c-0.2,0-0.4-0.2-0.4-0.4
			C370,184.9,370.2,184.8,370.4,184.8z"/>
		<path class="st1" d="M401.5,151h3.8c0.4,0,0.8-0.3,0.8-0.7v-0.7c0-0.2-0.2-0.4-0.4-0.4h-23.3H377h-3c-0.4,0-0.8,0.3-0.8,0.7
			c0,0.4,0.3,0.7,0.8,0.7h3v0h5.7c0.2,0,0.4,0.1,0.4,0.3c0,0.2-0.2,0.4-0.4,0.4H378c-0.5,0-1,0.4-1,0.9v1.2c0,0.6,0.5,1.1,1.2,1.1h1
			c0.2,0,0.4,0.1,0.4,0.3c0,0.2-0.2,0.4-0.4,0.4h-1.3c-0.5,0-0.9,0.4-0.9,0.9c0,0.4,0.3,0.7,0.8,0.7h9.2c0.2,0,0.4,0.2,0.4,0.4v5.5
			c0,0.2-0.2,0.4-0.4,0.4H380c-0.1,0-0.2,0.1-0.3,0.1c-0.6,0.6-0.1,1.3,0.5,1.3h7.1v0h1.5c0.2,0,0.4,0.1,0.4,0.3
			c0,0.2-0.2,0.4-0.4,0.4h-1.1c-0.2,0-0.4,0.2-0.4,0.4v10.1c0,0.2-0.2,0.4-0.4,0.4h-1.8c-0.4,0-0.8,0.3-0.8,0.7
			c0,0.4,0.3,0.7,0.8,0.7h2.2v0h3.7c0.2,0,0.4,0.1,0.4,0.3c0,0.2-0.2,0.4-0.4,0.4h-3.4c-0.2,0-0.4,0.2-0.4,0.4v2.7
			c0,0.2-0.2,0.4-0.4,0.4h-4.5c-0.4,0-0.8,0.3-0.8,0.7c0,0.4,0.3,0.7,0.8,0.7h5v0h3.7c0.2,0,0.4,0.1,0.4,0.3c0,0.2-0.2,0.4-0.4,0.4
			h-3.4c-0.2,0-0.4,0.2-0.4,0.4v3c0,0.2,0.2,0.4,0.4,0.4h7.2c0.4,0,0.7-0.3,0.7-0.6c0-0.4-0.3-0.6-0.7-0.6h-3.8
			c-0.2,0-0.4-0.1-0.4-0.3c0-0.2,0.2-0.4,0.4-0.4h3.1c0.8,0,1.4-0.6,1.4-1.3v-11.4c0-0.2-0.2-0.4-0.4-0.4h-1.1
			c-0.2,0-0.4-0.1-0.4-0.3c0-0.2,0.2-0.4,0.4-0.4h1.1c0.2,0,0.4-0.2,0.4-0.4v-10c0-0.3-0.3-0.6-0.7-0.6h-3.9c-0.2,0-0.4-0.1-0.4-0.3
			c0-0.2,0.2-0.4,0.4-0.4h2.7c1,0,1.8-0.8,1.8-1.7v-1.4c0-0.2,0.2-0.4,0.4-0.4h9.5c0.2,0,0.4-0.2,0.4-0.4v-0.5
			c0-0.4-0.3-0.7-0.8-0.7h-0.7c-0.2,0-0.4-0.1-0.4-0.3c0-0.2,0.2-0.4,0.4-0.4h0.7c0.5,0,0.8-0.3,0.8-0.8v-1.4c0-0.3-0.3-0.6-0.7-0.6
			h-3.9c-0.2,0-0.4-0.2-0.4-0.4C401.1,151.1,401.3,151,401.5,151z"/>
		<path class="st1" d="M257.3,187.5v-7c0-0.2-0.2-0.4-0.4-0.4h-12.4c-0.2,0-0.4-0.2-0.4-0.4v-7c0-0.2,0.2-0.4,0.4-0.4h10.1
			c0.2,0,0.4-0.2,0.4-0.4v-2.7c0,0,0,0,0,0v-1.5c0,0,0,0,0,0V165c0-0.2-0.2-0.4-0.4-0.4h-10.1c-0.2,0-0.4-0.2-0.4-0.4v-7
			c0-0.2,0.2-0.4,0.4-0.4h11.7c0.2,0,0.4-0.2,0.4-0.4v-7c0-0.2-0.2-0.4-0.4-0.4h-20c-0.2,0-0.4,0.2-0.4,0.4v8.6h0v1.5c0,0,0,0,0,0
			l0,1.8h0v3.3h0v8.6h0l0,1.3v0.5c0,0,0,0,0,0l0,1.8h0v0c0,0,0,0,0,0h0l0,1.1c0,0,0,0,0,0.1v9.4c0,0.2,0.2,0.4,0.4,0.4h20.7
			C257.1,187.9,257.3,187.7,257.3,187.5z"/>
	</g>
</g>
<path class="st1" d="M34.6,163.6l17,0L33,117.5c0,0,33.5,0,51,0c28.2,0,51,22.8,51,51s-22.8,51-51,51c-5.4,0-27.4,0-27.4,0
	L34.6,163.6z"/>
<path class="st2" d="M84.8,152.1V163c0,0.3,0.3,0.6,0.6,0.6h14.9c0.4,0,0.6,0.3,0.6,0.6v11c0,0.3-0.3,0.6-0.6,0.6H85.5
	c-0.4,0-0.6,0.3-0.6,0.6v23.1c0,0.3-0.3,0.6-0.6,0.6H72.5c-0.4,0-0.6-0.3-0.6-0.6V140c0-0.3,0.3-0.6,0.6-0.6h31.1
	c0.4,0,0.6,0.3,0.6,0.6v10.9c0,0.3-0.3,0.6-0.6,0.6H85.5C85.1,151.5,84.8,151.8,84.8,152.1z"/>
<linearGradient id="SVGID_00000178183059860658125120000001103413555670703803_" gradientUnits="userSpaceOnUse" x1="88.0476" y1="198.6429" x2="88.0476" y2="137.9286" gradientTransform="matrix(1 0 0 -1 0 338)">
	<stop  offset="0" style="stop-color:#FFFFFF"/>
	<stop  offset="1" style="stop-color:#FFFFFF;stop-opacity:0"/>
</linearGradient>
<path style="fill:url(#SVGID_00000178183059860658125120000001103413555670703803_);" d="M84.8,152.1V163c0,0.3,0.3,0.6,0.6,0.6
	h14.9c0.4,0,0.6,0.3,0.6,0.6v11c0,0.3-0.3,0.6-0.6,0.6H85.5c-0.4,0-0.6,0.3-0.6,0.6v23.1c0,0.3-0.3,0.6-0.6,0.6H72.5
	c-0.4,0-0.6-0.3-0.6-0.6V140c0-0.3,0.3-0.6,0.6-0.6h31.1c0.4,0,0.6,0.3,0.6,0.6v10.9c0,0.3-0.3,0.6-0.6,0.6H85.5
	C85.1,151.5,84.8,151.8,84.8,152.1z"/>
</svg>
