<?xml version="1.0" encoding="UTF-8" standalone="no"?>
<!DOCTYPE svg PUBLIC "-//W3C//DTD SVG 1.1//EN" "http://www.w3.org/Graphics/SVG/1.1/DTD/svg11.dtd">
<svg version="1.1" xmlns="http://www.w3.org/2000/svg" xmlns:xlink="http://www.w3.org/1999/xlink" preserveAspectRatio="xMidYMid meet" viewBox="0 0 100 80" width="100" height="80"><defs><path d="M100 -0.68C100 -0.68 100 -0.68 100 -0.68C100 47.32 100 73.98 100 79.32C100 79.32 100 79.32 100 79.32C40 79.32 6.67 79.32 0 79.32C0 79.32 0 79.32 0 79.32C0 31.32 0 4.65 0 -0.68C0 -0.68 0 -0.68 0 -0.68C60 -0.68 93.33 -0.68 100 -0.68Z" id="b2M3tr2iFX"></path><path d="M19.83 17.95C17.66 18.2 14.73 19.06 12.82 20C6.41 23.14 2.28 28.99 1.12 36.6C0.89 38.19 0.83 41.69 1.02 43.42C1.79 50.3 4.84 55.69 10.04 59.35C13.24 61.6 17.11 62.89 21.61 63.22C25.48 63.49 28.77 62.69 32.9 60.46C39.07 57.14 46.02 50.86 53.01 42.3C55.82 38.85 60.26 34.12 62.83 31.84C66.8 28.31 70.58 25.86 73.76 24.75C75.48 24.15 76.23 24.01 77.84 24.02C80.68 24.03 83.2 24.6 85.6 25.78C89.22 27.56 91.94 30.8 93.19 34.81C94.51 39.06 94.22 44.24 92.43 48.18C89.94 53.64 84.35 56.99 77.75 56.99C72.69 56.99 66.24 52.94 58.15 44.66C58.02 44.53 57.42 43.92 56.34 42.81L54.27 45.04L52.19 47.28C53.46 48.59 54.17 49.32 54.31 49.47C61.56 56.97 68.15 61.45 74 62.84C77.72 63.73 82.81 63.2 86.88 61.51C92.82 59.04 97.07 54.27 98.96 47.92C99.75 45.33 100.03 42.98 99.97 39.86C99.9 36.67 99.45 34.18 98.49 31.59C95.71 24.14 89.58 19.26 81.39 17.98C79.81 17.74 76.74 17.69 75.39 17.88C67.78 19 58.38 26.01 48.74 37.77C41.15 47.05 34.02 53.32 28.29 55.78C25.84 56.84 23.86 57.16 21.34 56.9C14.61 56.21 9.67 52.37 7.74 46.29C6.6 42.69 6.58 38.38 7.69 34.81C8.94 30.8 11.67 27.55 15.28 25.78C18.73 24.09 22.96 23.54 26.08 24.4C30.53 25.61 36.18 29.63 42.37 35.99C42.51 36.14 43.24 36.89 44.54 38.23L46.61 36L48.69 33.79C48.39 33.42 48.22 33.22 48.19 33.17C47.57 32.43 44.6 29.46 43.01 28.01C36.51 22.05 30.64 18.64 25.57 17.89C24.65 17.76 21.88 17.7 21.05 17.8C20.89 17.82 20.34 17.89 19.83 17.95Z" id="bbJ1aqvFH"></path><path d="M17.87 49.07C17.93 49.07 33.16 39.98 33.25 39.86C33.32 39.81 20.45 32.02 18.06 30.66C18.05 30.65 17.96 30.6 17.81 30.51L17.81 39.8C17.83 45.98 17.85 49.07 17.87 49.07Z" id="a3Och4SSZc"></path><path d="M67.28 33.77C66.84 34.82 66.69 35.69 66.73 37.13C66.74 37.7 66.77 38.2 66.8 38.22C66.84 38.25 68.24 38.14 68.28 38.1C68.29 38.09 68.27 37.89 68.25 37.65C68.01 35.25 68.76 33.45 70.36 32.57C70.99 32.23 71.46 32.11 72.21 32.11C72.91 32.11 73.27 32.19 73.83 32.46C74.45 32.75 74.76 33.03 76.31 34.65C76.41 34.76 76.93 35.31 77.86 36.28C78.77 35.34 79.27 34.81 79.37 34.71C80.94 33.06 81.1 32.91 81.57 32.63C83.52 31.48 86.04 32.26 87.02 34.33C87.21 34.72 87.4 35.41 87.47 35.9C87.66 37.32 87.37 38.72 86.69 39.75C86.67 39.77 86.6 39.87 86.48 40.06L84.21 40.06L81.94 40.06C81.75 40.17 81.64 40.24 81.61 40.25C81.33 40.41 81.25 40.49 81.05 40.82C80.93 41.03 80.81 41.2 80.79 41.2C80.77 41.2 80.53 40.64 80.27 39.95C80.24 39.87 80.08 39.45 79.79 38.7C79.37 38.72 79.14 38.74 79.1 38.74C78.72 38.75 78.39 38.79 78.37 38.81C78.36 38.83 78.16 39.54 77.94 40.41C77.71 41.26 77.52 41.94 77.5 41.9C77.47 41.84 76.74 39.47 75.7 36.03C75.69 35.99 75.64 35.82 75.55 35.5C75.34 35.5 75.22 35.5 75.2 35.5C75.01 35.5 74.68 35.52 74.47 35.53C74.44 35.54 74.31 35.55 74.08 35.57C73.81 36.81 73.66 37.5 73.63 37.64C73.38 38.78 73.15 39.79 73.13 39.88C73.12 39.9 73.11 39.96 73.08 40.06L69.49 40.06L65.89 40.06L65.89 40.85L65.89 41.64L67.25 41.64L68.6 41.64L73.24 46.56L77.87 51.5L82.52 46.56L87.16 41.64L88.5 41.64L89.84 41.64L89.84 40.85L89.84 40.06L89.07 40.06L88.3 40.06C88.39 39.86 88.43 39.74 88.44 39.72C88.88 38.71 89.03 37.8 88.99 36.51C88.96 35.27 88.79 34.52 88.33 33.58C88.04 32.95 87.87 32.7 87.35 32.16C86.64 31.41 85.81 30.92 84.8 30.65C84.18 30.48 82.8 30.49 82.23 30.65C80.93 31.03 80.4 31.4 78.96 32.91C78.88 32.99 78.52 33.37 77.86 34.06C77.19 33.36 76.82 32.97 76.75 32.89C75.41 31.49 74.91 31.12 73.91 30.78C73.13 30.52 72.05 30.43 71.26 30.59C69.49 30.92 67.98 32.13 67.28 33.77ZM76.88 45.01C76.9 45.02 77.23 45.03 77.61 45.02C77.66 45.02 77.89 45.01 78.31 45C78.45 44.44 78.54 44.13 78.55 44.07C78.68 43.55 78.89 42.76 79.01 42.3C79.02 42.24 79.1 41.96 79.23 41.46L79.58 42.36L79.93 43.26C80.04 43.27 80.1 43.28 80.11 43.28C80.22 43.3 80.52 43.33 80.79 43.35C80.82 43.35 80.99 43.36 81.28 43.39L81.81 42.51L82.35 41.64C83.13 41.64 83.57 41.64 83.65 41.64C84.47 41.64 84.95 41.66 84.94 41.69C84.91 41.8 82.54 44.34 80.25 46.72C80.09 46.88 79.29 47.72 77.85 49.21L74.31 45.44L70.77 41.67L72.24 41.65L73.72 41.64C73.93 41.46 74.04 41.36 74.07 41.34C74.46 41 74.41 41.12 74.71 39.76C74.89 38.93 74.92 38.79 74.96 38.83C74.97 38.84 75.4 40.22 75.91 41.91C76.42 43.6 76.86 44.99 76.88 45.01Z" id="ahcojwoZl"></path><mask id="maskbXgdV5cHe" x="65.89" y="30.51" width="23.94" height="20.99" maskUnits="userSpaceOnUse"><rect x="65.89" y="30.51" width="23.94" height="20.99" fill="white"></rect><use xlink:href="#ahcojwoZl" opacity="1" fill="black"></use></mask></defs><g><g><g><use xlink:href="#b2M3tr2iFX" opacity="1" fill="#000000" fill-opacity="0"></use><g><use xlink:href="#b2M3tr2iFX" opacity="1" fill-opacity="0" stroke="#000000" stroke-width="1" stroke-opacity="0"></use></g></g><g><use xlink:href="#bbJ1aqvFH" opacity="1" fill="#0404b8" fill-opacity="1"></use><g><use xlink:href="#bbJ1aqvFH" opacity="1" fill-opacity="0" stroke="#ffffff" stroke-width="0" stroke-opacity="1"></use></g></g><g><use xlink:href="#a3Och4SSZc" opacity="1" fill="#0404b8" fill-opacity="1"></use><g><use xlink:href="#a3Och4SSZc" opacity="1" fill-opacity="0" stroke="#0404b8" stroke-width="0" stroke-opacity="1"></use></g></g><g><use xlink:href="#ahcojwoZl" opacity="1" fill="#0404b8" fill-opacity="1"></use><g mask="url(#maskbXgdV5cHe)"><use xlink:href="#ahcojwoZl" opacity="1" fill-opacity="0" stroke="#363636" stroke-width="0" stroke-opacity="0"></use></g></g></g></g></svg>