<svg xmlns="http://www.w3.org/2000/svg" viewBox="0 0 120 120"><defs><style>.a{fill:#fff;}.b{fill:#1c12ac;}</style></defs><title>Connect your BigData datasource120</title><path class="a" d="M31.51,55.22,19.18,62.28V48.16l5.42,3.1,1,.58Zm-4.9-4,5.9,3.38,5.9-3.39,1-.57,5.89-3.38L32.52,40,19.69,47.3l5.92,3.39Zm12.81.57L19.69,63.15,32.52,70.5l13.3-7.64V48.16l-5.4,3.09Zm75,43L87.75,110.12,61.16,94.85,87.75,79.57ZM98.46,93.56l-2.23,1.29,4.92,2.85,4.93-2.85L101.15,92l-1.69,1-2.23-1.27,1.82-1.06-4.92-2.8-4.93,2.8,2.16,1.25L89.49,93l-1.74-1-1.9,1.1L83.9,92l2.31-1.34-4.93-2.8-4.93,2.8,4.93,2.85,1.61-.93,2,1.11-2,1.17,2,1.14-1.93,1.15L81,96.07l-4.93,2.8L81,101.73l4.93-2.86-2-1.16,1.92-1.15,2,1.14,2-1.14,1.77,1-2.29,1.3,4.93,2.86,4.92-2.86-4.92-2.8L92.51,97l-1.79-1,2-1.13-2.19-1.27,1.86-1.11,1.79,1,2.1-1.22ZM84.82,94.85l2.93,1.69,1.8-1,.16-.1,1-.55-2.92-1.69Zm9.31,5.72L97,98.88l-2.91-1.66-2.92,1.66Zm7-4,2.93-1.69-2.93-1.69-1.13.65-.56.33-1.23.71Zm-9.94-5.88,1.13.65,0,0,1.74,1L97,90.66,94.13,89ZM78.06,98.88,81,100.57l2.92-1.69L81,97.22ZM81.28,89l-2.92,1.66,2.92,1.68,2.92-1.68Zm6.47-55.7c5.15,0,9.5-1.91,9.5-4.17a2,2,0,0,0-.32-1c-1.78,1.58-5.19,2.63-9.18,2.63s-7.41-1-9.18-2.63a2,2,0,0,0-.32,1C78.25,31.39,82.6,33.3,87.75,33.3ZM78.86,27l.35.35c1.56,1.39,4.84,2.38,8.54,2.38s7-1,8.53-2.38a3.85,3.85,0,0,0,.35-.35,2.86,2.86,0,0,0,.3-.41,1.82,1.82,0,0,0,0-2.06,8,8,0,0,1-1.55,1l-.57.27-.65.27a20.12,20.12,0,0,1-12.83,0l-.65-.27-.57-.27a7.64,7.64,0,0,1-1.54-1,1.82,1.82,0,0,0,0,2.06A2.78,2.78,0,0,0,78.86,27Zm0-3.58a3.85,3.85,0,0,0,.35.35A7.33,7.33,0,0,0,81.33,25c.24.1.48.19.74.27s.58.19.89.27a19.7,19.7,0,0,0,9.57,0q.47-.12.9-.27c.25-.08.5-.17.73-.27a7.2,7.2,0,0,0,2.12-1.25,2.89,2.89,0,0,0,.35-.35,2.78,2.78,0,0,0,.3-.4,2,2,0,0,0,.32-1,1.73,1.73,0,0,0,0-.38,2.14,2.14,0,0,0-.27-.65c-.12.1-.23.2-.36.29a7.29,7.29,0,0,1-1.19.74c-.18.1-.37.19-.57.28s-.42.18-.65.26a19.94,19.94,0,0,1-12.83,0l-.65-.26c-.2-.09-.39-.18-.57-.28a7.9,7.9,0,0,1-1.18-.73l-.36-.3a2.34,2.34,0,0,0-.28.66,1.61,1.61,0,0,0,0,.37,1.92,1.92,0,0,0,.32,1A2.7,2.7,0,0,0,78.86,23.41Zm0-3.58L79,20c0,.06.12.11.18.17a6,6,0,0,0,.66.5,8.65,8.65,0,0,0,1.46.75l.74.27c.28.09.58.18.89.26a19.38,19.38,0,0,0,9.57,0l.9-.26.73-.27a9.58,9.58,0,0,0,1.47-.75,5.84,5.84,0,0,0,.65-.5l.19-.17.16-.18c.11-.14.21-.27.3-.41a2,2,0,0,0,.32-1,2,2,0,0,0-.32-1,7.61,7.61,0,0,1-1.55,1l-.57.27-.39.17-.26.1c-.32.12-.66.23-1,.33a20.61,20.61,0,0,1-10.8,0q-.54-.15-1-.33l-.25-.1-.4-.17-.57-.27a7.27,7.27,0,0,1-1.54-1,2,2,0,0,0-.32,1,1.92,1.92,0,0,0,.32,1A2.7,2.7,0,0,0,78.86,19.83Zm0-3.57a3.85,3.85,0,0,0,.35.35,7.56,7.56,0,0,0,2.12,1.25c.24.1.48.19.74.27l.16.06.73.21.64.15a19.28,19.28,0,0,0,4.15.44,19.35,19.35,0,0,0,4.15-.44l.63-.15.74-.22.16-.05c.25-.08.5-.17.73-.27a7.42,7.42,0,0,0,2.12-1.25,2.89,2.89,0,0,0,.35-.35,3.47,3.47,0,0,0,.3-.4,2,2,0,0,0,.32-1c0-2.26-4.35-4.17-9.5-4.17s-9.5,1.91-9.5,4.17a2,2,0,0,0,.32,1A3.35,3.35,0,0,0,78.86,16.26Z"/><path class="b" d="M73.79,86.44,47.18,71.16l14-8-13.94-8L73.86,39.9l13.89,8,28.63-16.43L98,20.92a3,3,0,0,0-.43-.73,2.82,2.82,0,0,0,0-3.58,3,3,0,0,0,.64-1.79c0-2.9-4.62-5.17-10.5-5.17s-10.5,2.27-10.5,5.17a3.07,3.07,0,0,0,.63,1.79,2.86,2.86,0,0,0,0,3.58,3.47,3.47,0,0,0-.43.74L59.15,31.44l13.71,7.88-26,14.91V47l-14.3-8.22L18.18,47v7.93L3.88,63.15,32.52,79.57l13.66-7.83L72.79,87,59.15,94.85l28.6,16.43,28.63-16.43L87.75,78.42Zm4.46-68a2,2,0,0,1,.32-1,7.27,7.27,0,0,0,1.54,1l.57.27.4.17.25.1q.48.18,1,.33a20.61,20.61,0,0,0,10.8,0c.35-.1.69-.21,1-.33l.26-.1.39-.17.57-.27a7.61,7.61,0,0,0,1.55-1,2,2,0,0,1,.32,1,2,2,0,0,1-.32,1c-.09.14-.19.27-.3.41l-.16.18-.19.17a5.84,5.84,0,0,1-.65.5,9.58,9.58,0,0,1-1.47.75l-.73.27-.9.26A19.38,19.38,0,0,1,83,22c-.31-.08-.61-.17-.89-.26l-.74-.27a8.65,8.65,0,0,1-1.46-.75,6,6,0,0,1-.66-.5c-.06-.06-.13-.11-.18-.17l-.17-.19a2.7,2.7,0,0,1-.29-.4A1.92,1.92,0,0,1,78.25,18.4Zm0-3.58c0-2.26,4.35-4.17,9.5-4.17s9.5,1.91,9.5,4.17a2,2,0,0,1-.32,1,3.47,3.47,0,0,1-.3.4,2.89,2.89,0,0,1-.35.35,7.42,7.42,0,0,1-2.12,1.25c-.23.1-.48.19-.73.27l-.16.05-.74.22-.63.15a19.35,19.35,0,0,1-4.15.44,19.28,19.28,0,0,1-4.15-.44L83,18.4l-.73-.21-.16-.06c-.26-.08-.5-.17-.74-.27a7.56,7.56,0,0,1-2.12-1.25,3.85,3.85,0,0,1-.35-.35,3.35,3.35,0,0,1-.29-.4A2,2,0,0,1,78.25,14.82Zm19,7.15a2,2,0,0,1-.32,1,2.78,2.78,0,0,1-.3.4,2.89,2.89,0,0,1-.35.35A7.2,7.2,0,0,1,94.16,25c-.23.1-.48.19-.73.27s-.59.19-.9.27a19.7,19.7,0,0,1-9.57,0c-.31-.08-.61-.17-.89-.27s-.5-.17-.74-.27a7.33,7.33,0,0,1-2.12-1.25,3.85,3.85,0,0,1-.35-.35,2.7,2.7,0,0,1-.29-.4,1.92,1.92,0,0,1-.32-1,1.61,1.61,0,0,1,0-.37,2.34,2.34,0,0,1,.28-.66l.36.3a7.9,7.9,0,0,0,1.18.73c.18.1.37.19.57.28l.65.26a19.94,19.94,0,0,0,12.83,0c.23-.08.44-.17.65-.26s.39-.18.57-.28a7.29,7.29,0,0,0,1.19-.74c.13-.09.24-.19.36-.29a2.14,2.14,0,0,1,.27.65A1.73,1.73,0,0,1,97.25,22Zm0,3.58a2,2,0,0,1-.32,1,2.86,2.86,0,0,1-.3.41,3.85,3.85,0,0,1-.35.35c-1.55,1.39-4.83,2.38-8.53,2.38s-7-1-8.54-2.38L78.86,27a2.78,2.78,0,0,1-.29-.41,1.82,1.82,0,0,1,0-2.06,7.64,7.64,0,0,0,1.54,1l.57.27.65.27a20.12,20.12,0,0,0,12.83,0l.65-.27.57-.27a8,8,0,0,0,1.55-1A2,2,0,0,1,97.25,25.55Zm0,3.58c0,2.26-4.35,4.17-9.5,4.17s-9.5-1.91-9.5-4.17a2,2,0,0,1,.32-1c1.77,1.58,5.18,2.63,9.18,2.63s7.4-1,9.18-2.63A2,2,0,0,1,97.25,29.13ZM61.16,31.44l16.11-9.25a3,3,0,0,0,.61,1.57,2.86,2.86,0,0,0,0,3.58,3,3,0,0,0-.63,1.79c0,2.9,4.61,5.17,10.5,5.17s10.5-2.27,10.5-5.17a3,3,0,0,0-.64-1.79,2.82,2.82,0,0,0,0-3.58,3.11,3.11,0,0,0,.62-1.58l16.15,9.26L87.75,46.72Zm-42,22.93V48.16l12.33,7.06L19.18,62.28V54.37ZM32.52,40,45.31,47.3l-12.8,7.34L19.69,47.3Zm13.3,22.91L32.52,70.5,19.69,63.15l26.13-15Zm-39.93.29,12.29-7v7.34l14.34,8.21,14.3-8.21V56.07l12.33,7.08L32.52,78.42Zm55.27,31.7L87.75,79.57l26.63,15.28L87.75,110.12Zm40,2.85,4.93-2.85L101.15,92l-1.69,1-2.23-1.27,1.82-1.06-4.92-2.8-4.93,2.8,2.16,1.25L89.49,93l-1.74-1-1.9,1.1L83.9,92l2.31-1.34-4.93-2.8-4.93,2.8,4.93,2.85,1.61-.93,2,1.11-2,1.17,2,1.14-1.93,1.15L81,96.07l-4.93,2.8L81,101.73l4.93-2.86-2-1.16,1.92-1.15,2,1.14,2-1.14,1.77,1-2.29,1.3,4.93,2.86,4.92-2.86-4.92-2.8L92.51,97l-1.79-1,2-1.13-2.19-1.27,1.86-1.11,1.79,1,2.1-1.22,2.23,1.28-2.23,1.29Zm-17-7-2.92,1.68-2.92-1.68L81.28,89Zm-6.14,8.22L81,97.22l2.92,1.66L81,100.57Zm19,0-2.91,1.69-2.92-1.69,2.92-1.66ZM89.55,95.5l-1.8,1-2.93-1.69,2.93-1.69,2.92,1.69-1,.55Zm2.84-4.16,0,0-1.13-.65L94.13,89,97,90.66l-2.91,1.68Zm8.76,1.82,2.93,1.69-2.93,1.69-2.92-1.69,1.23-.71.56-.33Z"/></svg>