<svg width="88" height="95" viewBox="0 0 88 95" fill="none" xmlns="http://www.w3.org/2000/svg">
<path d="M43.8 8.79995L77.9 33.4L43.8 82.1L9.7 33.5L43.8 8.79995ZM43.8 0.199951L0 31.7999L43.8 94.3L87.6 31.7999L43.8 0.199951Z" fill="black"/>
<path d="M43.8 12.4L77.9 61.0999L43.8 85.7L9.7 61.0999L43.8 12.4ZM43.8 0.199951L0 62.6999L43.8 94.3L87.6 62.6999L43.8 0.199951Z" fill="black"/>
<path d="M43.7999 55.4002C48.2735 55.4002 51.9 51.7737 51.9 47.3002C51.9 42.8267 48.2735 39.2002 43.7999 39.2002C39.3264 39.2002 35.7 42.8267 35.7 47.3002C35.7 51.7737 39.3264 55.4002 43.7999 55.4002Z" fill="white"/>
<path d="M43.7999 42.6001C46.4 42.6001 48.4 44.7001 48.4 47.2001C48.4 49.7001 46.2999 51.8001 43.7999 51.8001C41.2999 51.8001 39.2 49.7001 39.2 47.2001C39.2 44.7001 41.1999 42.6001 43.7999 42.6001ZM43.7999 35.6001C37.3999 35.6001 32.2 40.8001 32.2 47.2001C32.2 53.6001 37.3999 58.8001 43.7999 58.8001C50.1999 58.8001 55.4 53.6001 55.4 47.2001C55.4 40.8001 50.1999 35.6001 43.7999 35.6001Z" fill="black"/>
</svg>
