<svg width="42" height="44" viewBox="0 0 42 44" fill="none" xmlns="http://www.w3.org/2000/svg">
<path d="M20.5479 4.3647L37.0365 15.6978L20.5479 38.1079L4.05475 15.6978L20.5479 4.3647ZM20.5479 0.472656L-0.487183 14.9295L20.5479 43.5275L41.5785 14.9295L20.5479 0.495523V0.472656Z" fill="white"/>
<path d="M20.5479 5.88756L37.0365 28.2977L20.5479 39.6308L4.05475 28.3068L20.5479 5.89671V5.88756ZM20.5479 0.481689L-0.487183 29.0706L20.5479 43.5274L41.5785 29.0706L20.5479 0.495409V0.481689Z" fill="white"/>
<path d="M20.5479 19.8825C20.9695 19.8825 21.3817 20.0073 21.732 20.2411C22.0824 20.4749 22.3552 20.8071 22.5159 21.1957C22.6766 21.5842 22.718 22.0116 22.6347 22.4236C22.5515 22.8357 22.3473 23.2138 22.0482 23.51C21.7492 23.8062 21.3686 24.0072 20.9547 24.0876C20.5409 24.1679 20.1124 24.1239 19.7237 23.9612C19.335 23.7985 19.0035 23.5243 18.7712 23.1735C18.539 22.8228 18.4165 22.4111 18.4192 21.9909C18.4204 21.4288 18.6452 20.8902 19.0443 20.4933C19.4434 20.0963 19.9841 19.8733 20.5479 19.8733V19.8825ZM20.5479 16.6719C19.4913 16.671 18.4582 16.9825 17.5793 17.5672C16.7004 18.1518 16.0153 18.9831 15.6105 19.9561C15.2057 20.929 15.0996 21.9998 15.3055 23.0329C15.5114 24.066 16.0201 25.015 16.7672 25.7597C17.5144 26.5045 18.4663 27.0116 19.5026 27.2169C20.539 27.4222 21.6131 27.3164 22.5891 26.9129C23.5651 26.5094 24.399 25.8263 24.9855 24.9502C25.5719 24.074 25.8845 23.0441 25.8836 21.9909C25.8823 20.5805 25.3198 19.2283 24.3194 18.2311C23.3191 17.2339 21.9627 16.6731 20.5479 16.6719Z" fill="white"/>
</svg>
